# xmcd
#
# Track frame offsets:
# 150
# 18320
# 29265
# 41465
# 52900
# 69370
# 83415
# 96742
# 111082
# 121887
# 134987
# 151137
# 165285
# 177250
# 192537
# 204072
# 217220
# 231450
# 246252
# 259797
# 275750
# 286272
#
# Disc length: 4033 seconds
#
#
# Revision: 0
# Processed by: cddbd v1.5PL3 Copyright (c) Steve Scherf et al.
# Submitted via: FreeRIP 2.53 
#
DISCID=3d0fbf16
DTITLE=Various Artist - Contemporary Country The Late '70's
DYEAR=1991
DGENRE=Country
TTITLE0=Hank Williams Jr Family Tradition
TTITLE1=The Kendalls Heaven's Just a Sin Away
TTITLE2=Moe Bandy It's a Cheating Situration
TTITLE3=Waylon Jennings Willie Nelson Mammas Don't Let Your Bablies Grow Up to be Cowboys
TTITLE4=Ronnie Milsap It Was Almost Like a Song
TTITLE5=Merle Haggard Ramblin Fever
TTITLE6=Dolly Parton Here You Come Again
TTITLE7=The Bellamy Brothers If I Said You Had a Beautiful Body Would You Hold It Against Me
TTITLE8=George Jones Tammy Wynett Near You
TTITLE9=Conway Twitty Happy Birthday Darlin
TTITLE10=Willie Nelson Blue Skies
TTITLE11=Emmylou Harris Two More Bottles of Wine
TTITLE12=Johnny Paycheck Take This Job and Shove It
TTITLE13=John Conlee Rose Colored Glasses
TTITLE14=Crystal Gayle Don't It Make My Brown Eyes Blue
TTITLE15=Elvis Presley Moody Blue
TTITLE16=Don Williams Tulsa Time
TTITLE17=Waylon Jennings Lukenbach, Texas
TTITLE18=Glen Campbell Southern Nights
TTITLE19=George Jones Bartenders Blues
TTITLE20=Barbara Mandrell Sleeping Single in a Double Bed
TTITLE21=The Charlie Daniels Band The Devil Went Down to Georgia
EXTD=Time Life
EXTT0=
EXTT1=
EXTT2=
EXTT3=
EXTT4=
EXTT5=
EXTT6=
EXTT7=
EXTT8=
EXTT9=
EXTT10=
EXTT11=
EXTT12=
EXTT13=
EXTT14=
EXTT15=
EXTT16=
EXTT17=
EXTT18=
EXTT19=
EXTT20=
EXTT21=
PLAYORDER=
